<svg xmlns:xlink="http://www.w3.org/1999/xlink" xmlns="http://www.w3.org/2000/svg" viewBox="0 0 96 96" class="sc-AxjAm dIOHHa" width="96"  height="96" ><a href="https://www.facebook.com/linktreeapp/" target="_blank" rel="noopener noreferrer" fill="#C4C4C4"><rect class="sc-AxhCb bWQEfy" fill-opacity="0" fill="#000000"></rect><path d="M96,90.7A5.3,5.3,0,0,1,90.7,96H66.24V58.82H78.72l1.87-14.48H66.24V35.09c0-4.2,1.16-7.06,7.18-7.06h7.67v-13a101.78,101.78,0,0,0-11.18-.57c-11.06,0-18.63,6.75-18.63,19.15V44.34H38.77V58.82H51.28V96H5.3A5.3,5.3,0,0,1,0,90.7V5.3A5.3,5.3,0,0,1,5.3,0H90.7A5.3,5.3,0,0,1,96,5.3Z" fill="#C4C4C4"></path></a></svg>