<svg xmlns:xlink="http://www.w3.org/1999/xlink" xmlns="http://www.w3.org/2000/svg" viewBox="0 0 24 24" class="sc-AxjAm Linktree__ResizedStyledSvg-sc-1ptrss-0 dnOQRt" width="24"  height="24" ><a href="https://linktr.ee/linktr.ee" target="_blank" rel="noopener noreferrer" class="sc-pBolk cIOZJy" fill="#C4C4C4"><rect class="sc-AxhCb bWQEfy" fill-opacity="0" fill="#000000"></rect><path d="M8.92,2.44a1.06,1.06,0,0,0-1.86,0L.1,15.07A1,1,0,0,0,1,16.44h4.7v4.78a.9.9,0,0,0,.89.89H9.33a.91.91,0,0,0,.89-.89V16.44H8.92a1.05,1.05,0,0,1-1-.89A1,1,0,0,1,8,15.07l3.89-7h0Z" fill="#C4C4C4"></path><path d="M15.08,2.44a1.06,1.06,0,0,1,1.86,0l7,12.63A1,1,0,0,1,23,16.44H18.39v4.78a.9.9,0,0,1-.89.89H14.59a.9.9,0,0,1-.89-.89V16.44H15a1.05,1.05,0,0,0,1.06-.89,1,1,0,0,0-.08-.48L12.08,8h0Z" fill="#C4C4C4"></path></a></svg>